<svg xmlns="http://www.w3.org/2000/svg" viewBox="0 0 1102.01 1009.23"><defs><style>.cls-1{fill:#d87c2e;}.cls-2{fill:none;stroke:#fff;stroke-miterlimit:10;}.cls-3{fill:#fff;}</style></defs><title>logo-dark</title><g id="Layer_2" data-name="Layer 2"><g id="Layer_7" data-name="Layer 7"><path class="cls-1" d="M225.41,0a95.72,95.72,0,0,0-84.18,65.8A40,40,0,0,0,99.62,93.19l-.53,1.58,2.38,1.63a21.36,21.36,0,0,1,35,16.41V231.73a25.88,25.88,0,0,1-17.72,24.59v2.85a25.89,25.89,0,0,1,17.72,24.59v323a25.88,25.88,0,0,1-17.72,24.59v2.85a25.89,25.89,0,0,1,17.72,24.59V811.44A206.32,206.32,0,0,1,99,930.41a206.44,206.44,0,0,1-99,75.93l.71,2.89A217.52,217.52,0,0,0,135.64,936.9a217.5,217.5,0,0,0,53.87-143.31V92A125.69,125.69,0,0,1,226.57,2.56Z"/><path class="cls-1" d="M508.26,658.76A25.89,25.89,0,0,1,526,634.17v-2.85a25.89,25.89,0,0,1-17.73-24.59v-323A25.89,25.89,0,0,1,526,259.17v-2.85a25.89,25.89,0,0,1-17.73-24.59V117a125.69,125.69,0,0,1,37.06-89.47L544.16,25a96,96,0,0,0-86.69,75,40.39,40.39,0,0,0-39.1,27.51l-.53,1.59,2.38,1.62a21.37,21.37,0,0,1,35,16.42V801.27a96.47,96.47,0,0,0,2.36,21.14l-20,15a52.12,52.12,0,0,0-16.94,21.92,127.24,127.24,0,0,1-12.41-54.63V108.52A31.46,31.46,0,0,1,432.13,78l.46-2.7a33.34,33.34,0,0,0-29.14-3.84A149.87,149.87,0,0,0,383,25.66h-2.5a150.09,150.09,0,0,0-20.43,45.75,33.36,33.36,0,0,0-29.15,3.84l.47,2.7a31.46,31.46,0,0,1,23.86,30.57V801.27a96.47,96.47,0,0,0,2.36,21.14l-20,15a52.12,52.12,0,0,0-16.94,21.92,127.24,127.24,0,0,1-12.41-54.63V147.16a21.37,21.37,0,0,1,35-16.42l2.39-1.62-.53-1.59a39.8,39.8,0,0,0-20.62-23.48,40.57,40.57,0,0,0-30.2-2,95.79,95.79,0,0,0-75-45.78l-1.17,2.56a125.69,125.69,0,0,1,37.06,89.47v83.45a25.88,25.88,0,0,1-17.72,24.59v2.85a25.89,25.89,0,0,1,17.72,24.59v323a25.88,25.88,0,0,1-17.72,24.59v2.85a25.89,25.89,0,0,1,17.72,24.59V808.93a21.36,21.36,0,0,1-35,16.41L217.84,827l.53,1.59a39.71,39.71,0,0,0,21.41,23.86,40.4,40.4,0,0,0,31,1.09,96.15,96.15,0,0,0,73.39,43.23l1.29-2.42a32.44,32.44,0,0,1,5.68-45.57l10.54-8.2a1.5,1.5,0,0,1,2.28.57,95.72,95.72,0,0,0,80.21,55.62l1.29-2.42a32.44,32.44,0,0,1,5.68-45.57l10.54-8.2a1.5,1.5,0,0,1,2.28.57,95.72,95.72,0,0,0,80.21,55.62l1.16-2.55a125.72,125.72,0,0,1-37.06-89.48Z"/><path class="cls-1" d="M964.51,759.12a5.31,5.31,0,0,0-8.5-4.25l-44,33-71,59.17a107.19,107.19,0,0,0,4.7-31.43V129.53a125.69,125.69,0,0,1,37.06-89.47l-1.16-2.56a95.64,95.64,0,0,0-83.14,62.74,40.29,40.29,0,0,0-42.65,27.29l-.53,1.59,2.38,1.62a21.37,21.37,0,0,1,35,16.42v84.57A25.88,25.88,0,0,1,775,256.32v2.85a25.89,25.89,0,0,1,17.72,24.59v323A25.88,25.88,0,0,1,775,631.32v2.85a25.89,25.89,0,0,1,17.72,24.59V818.93a82.57,82.57,0,0,1-36.83,68.82l.47,2.7a99.51,99.51,0,0,0,90-21.93L912,810.64a95.7,95.7,0,0,0,88.42,86.1l1.16-2.55a125.72,125.72,0,0,1-37.06-89.48Z"/><path class="cls-1" d="M762.42,818.87c-14.68,6.34-24.73,1.46-28.37-.93-4.27-2.81-7-6.81-7-10.19v-149a25.89,25.89,0,0,1,17.73-24.59v-2.85A25.89,25.89,0,0,1,727,606.73v-323a25.89,25.89,0,0,1,17.73-24.59v-2.85A25.89,25.89,0,0,1,727,231.73V148.28a125.69,125.69,0,0,1,37.06-89.47l-1.16-2.56a94.88,94.88,0,0,0-55,22.4,120.78,120.78,0,0,0-82.11-59.87l-1.47,2.4c2.83,3.54,5.61,7.25,8.27,11a7.55,7.55,0,0,1-1.11,10l-25.66,23A57.12,57.12,0,0,0,598.45,73a40.25,40.25,0,0,0-61.33,20.2l-.53,1.58,2.48,1.54A20.46,20.46,0,0,1,574,110.78v121a25.88,25.88,0,0,1-17.72,24.59v2.85A25.89,25.89,0,0,1,574,283.76v323a25.88,25.88,0,0,1-17.72,24.59v2.85A25.89,25.89,0,0,1,574,658.76v86.61a20.46,20.46,0,0,1-34.94,14.47l-2.48,1.54.53,1.58A40.25,40.25,0,0,0,574,790.46v17.29l.26.26a95.7,95.7,0,0,0,88.64,88.73l1.16-2.55A125.72,125.72,0,0,1,627,804.71V235.29a9.11,9.11,0,0,1,3.74-7.34l39.52-28.74a2.36,2.36,0,0,1,3.74,1.91V696.94a40.24,40.24,0,0,0-36.89,27.5l-.53,1.58,2.48,1.54A20.46,20.46,0,0,1,674,742V820.5c0,17.08,15.34,34.75,41,34.75,26.37,0,49.5-21.82,49.5-35ZM674,162.79v10.39a1.28,1.28,0,0,1-.54,1L629,205.34a1.27,1.27,0,0,1-2-1V104.93a51.72,51.72,0,0,1,15.25-36.81l4.52-4.52a2.26,2.26,0,0,1,1.69-.73,5.07,5.07,0,0,1,3.3,1.88c2.41,2.65,7.73,10.94,12.42,25.21C670.71,109.82,674,134.33,674,162.79Z"/><path class="cls-1" d="M1099.92,860.37c-14.68,6.34-24.73,1.46-28.37-.93-4.27-2.81-7-6.81-7-10.19V658.76a25.89,25.89,0,0,1,17.73-24.59v-2.85a25.89,25.89,0,0,1-17.73-24.59v-323a25.89,25.89,0,0,1,17.73-24.59v-2.85a25.89,25.89,0,0,1-17.73-24.59V148.28a125.69,125.69,0,0,1,37.06-89.47l-1.16-2.56a94.88,94.88,0,0,0-55,22.4,120.78,120.78,0,0,0-82.11-59.87l-1.47,2.4c2.83,3.54,5.61,7.25,8.27,11a7.55,7.55,0,0,1-1.11,10l-25.66,23a56.9,56.9,0,0,0-8.93,9.92,40.24,40.24,0,0,0-59.79,21.21l-.53,1.59,2.38,1.62a21.37,21.37,0,0,1,35,16.42V231.73a25.88,25.88,0,0,1-17.72,24.59v2.85a25.89,25.89,0,0,1,17.72,24.59v323a25.88,25.88,0,0,1-17.72,24.59v2.85a25.89,25.89,0,0,1,17.72,24.59V770.25l2.4,1.2,50-37.5.6-1.2V235.29a9.11,9.11,0,0,1,3.74-7.34l39.52-28.74a2.36,2.36,0,0,1,3.74,1.91V696.94a40.24,40.24,0,0,0-36.89,27.5l-.53,1.58,2.38,1.63a21.36,21.36,0,0,1,35,16.41V862c0,17.08,15.34,34.75,41,34.75,26.37,0,49.5-21.82,49.5-35Zm-88.41-697.58v10.39a1.28,1.28,0,0,1-.54,1l-44.46,31.12a1.27,1.27,0,0,1-2-1V104.93a51.72,51.72,0,0,1,15.25-36.81l4.52-4.52a2.39,2.39,0,0,1,1.89-.76,4.46,4.46,0,0,1,3,1.83c2.09,2.66,7.51,10.47,12.48,25.53C1008.21,110,1011.51,134.38,1011.51,162.79Z"/><path class="cls-2" d="M163.09,807.69c0,19.65-3.7,41.1-11.39,62.56"/><path class="cls-2" d="M481.76,807.75c0,11.1.48,22.55,6.25,31.5"/><path class="cls-2" d="M600.51,807.75c0,11,.21,22.52,6.15,31.25"/><path class="cls-2" d="M938,789h0c0,14.17,1.29,32.19,7.94,50"/><path class="cls-3" d="M282.25,645.25h0v-25h0c0-111.49,0-249.36,0-350h.06v-25h-.06c0-67.2,0-112.5,0-112.5h-1s0,45.89,0,113.82a14.47,14.47,0,0,1-4.21,9l-1.83,1.83v.71l1.83,1.83A14.44,14.44,0,0,1,281.2,269c0,100.86,0,239.62,0,351.64a14.45,14.45,0,0,1-4.25,9.93l-1.83,1.83v.71l1.83,1.83a14.5,14.5,0,0,1,4.26,10c0,82.13,0,146,0,162.83,0,10,0,22.41,6.24,31.53l.82-.57c-6.06-8.86-6.06-21.11-6.06-31C282.26,790.89,282.26,727.22,282.25,645.25Z"/><path class="cls-3" d="M382.26,95.25h-1s.08,654.29.08,712.5c0,12.19.47,23,6.26,31.59l.83-.56c-5.63-8.36-6.09-19-6.09-31C382.34,749.54,382.26,95.25,382.26,95.25Z"/><path class="cls-3" d="M818.83,245.25h-.07a14.46,14.46,0,0,1-4.27,10.31l-1.83,1.83v.71l1.83,1.83a14.48,14.48,0,0,1,4.27,10.32h.06c0,101,0,237.67,0,350h0a14.46,14.46,0,0,1-4.27,10.31l-1.83,1.83v.71l1.83,1.83a14.48,14.48,0,0,1,4.27,10.32h0c0,88.38,0,157.57,0,175a77.38,77.38,0,0,1-2.28,18.63l1,.24a78.37,78.37,0,0,0,2.31-18.87c0-58.21.08-693.75.08-693.75h-1S818.83,174.46,818.83,245.25Z"/><path class="cls-3" d="M162.57,245.25h-.06a14.46,14.46,0,0,1-4.27,10.31l-1.83,1.83v.71l1.83,1.83a14.48,14.48,0,0,1,4.27,10.32h.06c0,105.17,0,240.78,0,350h0a14.46,14.46,0,0,1-4.27,10.31l-1.83,1.83v.71l1.83,1.83a14.48,14.48,0,0,1,4.27,10.32h0c0,82.61,0,146.06,0,162.5h1c0-58.21.08-706.25.08-706.25h-1S162.58,160.85,162.57,245.25Z"/><path class="cls-3" d="M937.51,245.25a14.46,14.46,0,0,1-4.27,10.31l-1.83,1.83v.71l1.83,1.83a14.48,14.48,0,0,1,4.27,10.32v350a14.46,14.46,0,0,1-4.27,10.31l-1.83,1.83v.71l1.83,1.83a14.48,14.48,0,0,1,4.27,10.32v87.5h1v-625h-1Z"/><path class="cls-3" d="M600,245.25a14.46,14.46,0,0,1-4.27,10.31l-1.83,1.83v.71l1.83,1.83A14.48,14.48,0,0,1,600,270.25v350a14.46,14.46,0,0,1-4.27,10.31l-1.83,1.83v.71l1.83,1.83A14.48,14.48,0,0,1,600,645.25v162.5h1v-700h-1Z"/><path class="cls-3" d="M1042.79,259.93l1.83-1.83v-.71l-1.83-1.83a14.47,14.47,0,0,1-4.28-10.31V139c0-14.28-.34-27-4.5-37.69l-.94.37c4.11,10.55,4.44,23.14,4.44,37.32V851.5h1V645.25a14.49,14.49,0,0,1,4.28-10.32l1.83-1.83v-.71l-1.83-1.83a14.47,14.47,0,0,1-4.28-10.31v-350A14.49,14.49,0,0,1,1042.79,259.93Z"/><path class="cls-3" d="M701,245.25v-87.5c0-17.2-.78-41.76-7.59-56.46l-.9.42c6.72,14.52,7.49,38.94,7.49,56v650h1V645.25a14.49,14.49,0,0,1,4.28-10.32l1.83-1.83v-.71l-1.83-1.83A14.47,14.47,0,0,1,701,620.25v-350a14.49,14.49,0,0,1,4.28-10.32l1.83-1.83v-.71l-1.83-1.83A14.47,14.47,0,0,1,701,245.25Z"/><path class="cls-3" d="M482.33,246.55c0-71.39,0-120,0-120h-1s0,48.07,0,118.75h-.07v25h.06c0,101.64,0,239,0,350h0v25h0c0,82.1,0,145.73,0,162.5h1c0-16.79,0-80.57,0-162.83a14.47,14.47,0,0,1,4.26-10l1.83-1.83v-.71l-1.83-1.83a14.46,14.46,0,0,1-4.26-9.93c0-111.51,0-249.75,0-351.63a14.48,14.48,0,0,1,4.22-9.07l1.83-1.83v-.71l-1.83-1.83A14.42,14.42,0,0,1,482.33,246.55Z"/><path class="cls-1" d="M911.54,949.21l1.49,1.7q-15.75,24.78-40.31,24.77-18.6,0-31.16-14.18-11-12.42-11-30.07,0-18.25,13-32.3a56.86,56.86,0,0,1,16-12l1.22,1.49a94.73,94.73,0,0,0-10.25,9.78q-8.9,10.32-8.89,24.84a41.62,41.62,0,0,0,7.46,23.41,11.27,11.27,0,0,0,3.74-3.93c.9-1.81,1.38-5.27,1.42-10.39V902.93l27.08-23.08q14.86,7.67,29.46,7.33l-12.62,12a71.39,71.39,0,0,1-20.43-6.93v69.64a48.56,48.56,0,0,0,12.48-1.63A55.61,55.61,0,0,0,911.54,949.21Zm-36.72-58.57-6.92,6.18v21.31q-.07,12-1.09,14.39Q864.5,938,856.63,944.6L851,949.28a32.9,32.9,0,0,0,23.82,12.36Z"/><path class="cls-1" d="M961.56,915.82v49.35q-13.92,5.7-20.09,11-12.36-9.92-25.32-10.52v-1.7a8.89,8.89,0,0,0,2.38-2.3q1.35-2.11,1.49-13V917a48.75,48.75,0,0,0,19.62-11.26A62,62,0,0,0,961.56,915.82Zm-28,.82v42.08L948,965V922.88Z"/><path class="cls-1" d="M973.3,966.18l10-10,10,10-10,10Z"/></g></g></svg>